<svg width="25" height="24" viewBox="0 0 25 24" fill="none" xmlns="http://www.w3.org/2000/svg">
<path d="M17.3445 14.652L16.284 13.5915L18.405 11.469C20.163 9.71248 20.4 7.10098 18.936 5.63548C17.4705 4.17148 14.859 4.40848 13.101 6.16648L10.9815 8.28748L9.92101 7.22698L12.042 5.10598C14.3865 2.76298 17.9475 2.52598 19.998 4.57498C22.0485 6.62548 21.81 10.1865 19.467 12.531L17.346 14.652H17.3445ZM15.2235 16.773L13.1025 18.894C10.758 21.237 7.19701 21.474 5.14651 19.425C3.09601 17.3745 3.33451 13.8135 5.67751 11.469L7.79851 9.34798L8.85901 10.4085L6.73801 12.531C4.98001 14.2875 4.74301 16.899 6.20701 18.3645C7.67251 19.8285 10.284 19.5915 12.042 17.8335L14.163 15.7125L15.2235 16.773ZM15.2235 8.28748L16.284 9.34798L9.91951 15.7125L8.85901 14.652L15.2235 8.28748Z" fill="#666666"/>
</svg>
