<svg width="25" height="24" viewBox="0 0 25 24" fill="none" xmlns="http://www.w3.org/2000/svg">
<path d="M14.3781 14.411H9.43884" stroke="#666666" stroke-width="1.4" stroke-linecap="round" stroke-linejoin="round"/>
<path d="M11.9087 16.8807L11.9087 11.9414" stroke="#666666" stroke-width="1.4" stroke-linecap="round" stroke-linejoin="round"/>
<path fill-rule="evenodd" clip-rule="evenodd" d="M15.0013 2.9037C14.907 2.8055 14.7767 2.75 14.6406 2.75L5.11096 2.75C4.83482 2.75 4.61096 2.97386 4.61096 3.25V20.75C4.61096 21.0261 4.83482 21.25 5.11096 21.25H19.4603C19.7364 21.25 19.9603 21.0261 19.9603 20.75V8.26944C19.9603 8.14035 19.9103 8.01626 19.8209 7.92314L15.0013 2.9037Z" stroke="#666666" stroke-width="1.4" stroke-linecap="square"/>
<path d="M15.0776 3.30469C15.0776 2.91809 14.7642 2.60469 14.3776 2.60469C13.991 2.60469 13.6776 2.91809 13.6776 3.30469H15.0776ZM19.4846 9.35011H20.1846V7.95011H19.4846V9.35011ZM13.6776 3.30469V8.15011H15.0776V3.30469H13.6776ZM14.8776 9.35011H19.4846V7.95011H14.8776V9.35011ZM13.6776 8.15011C13.6776 8.81285 14.2148 9.35011 14.8776 9.35011V7.95011C14.988 7.95011 15.0776 8.03965 15.0776 8.15011H13.6776Z" fill="#666666"/>
</svg>
