<svg width="21" height="20" viewBox="0 0 21 20" fill="none" xmlns="http://www.w3.org/2000/svg">
<path fill-rule="evenodd" clip-rule="evenodd" d="M3.52087 2.70816C3.52087 2.15588 3.96859 1.70816 4.52087 1.70816H12.4622C12.7345 1.70816 12.995 1.81917 13.1836 2.01555L17.1999 6.19842C17.3788 6.38466 17.4786 6.63284 17.4786 6.89103V17.2915C17.4786 17.8438 17.0309 18.2915 16.4786 18.2915H4.52087C3.96859 18.2915 3.52087 17.8438 3.52087 17.2915V2.70816ZM4.68754 2.87483V17.1248H16.312V7.79159H12.6597C12.1074 7.79159 11.6597 7.34387 11.6597 6.79159V2.87483H4.68754ZM12.8264 3.32802V6.62492H15.9921L12.8264 3.32802ZM10.769 9.951C10.769 9.62883 10.5078 9.36767 10.1857 9.36767C9.8635 9.36767 9.60234 9.62883 9.60234 9.951V11.4258H8.12765C7.80548 11.4258 7.54431 11.6869 7.54431 12.0091C7.54431 12.3313 7.80548 12.5924 8.12765 12.5924H9.60234V14.067C9.60234 14.3892 9.8635 14.6504 10.1857 14.6504C10.5078 14.6504 10.769 14.3892 10.769 14.067V12.5924H12.2437C12.5659 12.5924 12.827 12.3313 12.827 12.0091C12.827 11.6869 12.5659 11.4258 12.2437 11.4258H10.769V9.951Z" fill="#666666"/>
</svg>
