<svg width="20" height="20" viewBox="0 0 20 20" fill="none" xmlns="http://www.w3.org/2000/svg">
<path fill-rule="evenodd" clip-rule="evenodd" d="M10 2.24999C5.71983 2.24999 2.25004 5.71979 2.25004 9.99999C2.25004 11.5998 2.73417 13.0848 3.56383 14.3187C4.95631 16.3895 7.3194 17.75 10 17.75C12.6807 17.75 15.0438 16.3895 16.4363 14.3187C17.2659 13.0848 17.75 11.5998 17.75 9.99999C17.75 5.71979 14.2802 2.24999 10 2.24999ZM1.08337 9.99999C1.08337 5.07546 5.0755 1.08333 10 1.08333C14.9246 1.08333 18.9167 5.07546 18.9167 9.99999C18.9167 11.8389 18.3594 13.5494 17.4044 14.9697C15.8044 17.3491 13.0854 18.9167 10 18.9167C6.91468 18.9167 4.19566 17.3491 2.59568 14.9697C1.64067 13.5494 1.08337 11.8389 1.08337 9.99999Z" fill="#00623F"/>
<path fill-rule="evenodd" clip-rule="evenodd" d="M9.99996 6.41666C8.94141 6.41666 8.08329 7.27478 8.08329 8.33333C8.08329 9.39187 8.94141 10.25 9.99996 10.25C11.0585 10.25 11.9166 9.39187 11.9166 8.33333C11.9166 7.27478 11.0585 6.41666 9.99996 6.41666ZM6.91663 8.33333C6.91663 6.63045 8.29708 5.24999 9.99996 5.24999C11.7028 5.24999 13.0833 6.63045 13.0833 8.33333C13.0833 10.0362 11.7028 11.4167 9.99996 11.4167C8.29708 11.4167 6.91663 10.0362 6.91663 8.33333Z" fill="#00623F"/>
<path fill-rule="evenodd" clip-rule="evenodd" d="M15.3533 16.9981C14.0298 15.0812 12.1041 13.9167 9.99999 13.9167C7.89588 13.9167 5.97019 15.0812 4.64669 16.9981L3.68663 16.3352C5.18093 14.171 7.43661 12.75 9.99999 12.75C12.5634 12.75 14.8191 14.171 16.3134 16.3352L15.3533 16.9981Z" fill="#00623F"/>
</svg>
