<svg width="20" height="20" viewBox="0 0 20 20" fill="none" xmlns="http://www.w3.org/2000/svg">
<path d="M4.16667 8.64583C4.64286 8.65567 5.03714 8.81694 5.34952 9.12964C5.6619 9.44234 5.82317 9.83662 5.83333 10.3125C5.82349 10.7887 5.66222 11.183 5.34952 11.4954C5.03683 11.8077 4.64254 11.969 4.16667 11.9792C3.69048 11.9693 3.29619 11.8081 2.98381 11.4954C2.67143 11.1827 2.51016 10.7884 2.5 10.3125C2.50984 9.8363 2.67111 9.44202 2.98381 9.12964C3.29651 8.81726 3.69079 8.65599 4.16667 8.64583ZM10 8.64583C10.4762 8.65567 10.8705 8.81694 11.1829 9.12964C11.4952 9.44234 11.6565 9.83662 11.6667 10.3125C11.6568 10.7887 11.4956 11.183 11.1829 11.4954C10.8702 11.8077 10.4759 11.969 10 11.9792C9.52381 11.9693 9.12952 11.8081 8.81714 11.4954C8.50476 11.1827 8.34349 10.7884 8.33333 10.3125C8.34317 9.8363 8.50444 9.44202 8.81714 9.12964C9.12984 8.81726 9.52413 8.65599 10 8.64583ZM15.8333 8.64583C16.3095 8.65567 16.7038 8.81694 17.0162 9.12964C17.3286 9.44234 17.4898 9.83662 17.5 10.3125C17.4902 10.7887 17.3289 11.183 17.0162 11.4954C16.7035 11.8077 16.3092 11.969 15.8333 11.9792C15.3571 11.9693 14.9629 11.8081 14.6505 11.4954C14.3381 11.1827 14.1768 10.7884 14.1667 10.3125C14.1765 9.8363 14.3378 9.44202 14.6505 9.12964C14.9632 8.81726 15.3575 8.65599 15.8333 8.64583Z" fill="#666666"/>
</svg>
