<svg width="20" height="20" viewBox="0 0 20 20" fill="none" xmlns="http://www.w3.org/2000/svg">
<path fill-rule="evenodd" clip-rule="evenodd" d="M3.021 2.70833C3.021 2.15604 3.46871 1.70833 4.021 1.70833H11.9624C12.2346 1.70833 12.4951 1.81934 12.6837 2.01572L16.7001 6.19859C16.8789 6.38483 16.9788 6.63301 16.9788 6.8912V17.2917C16.9788 17.8439 16.531 18.2917 15.9788 18.2917H4.021C3.46871 18.2917 3.021 17.8439 3.021 17.2917V2.70833ZM4.18766 2.87499V17.125H15.8121V7.79175H12.1598C11.6075 7.79175 11.1598 7.34404 11.1598 6.79176V2.87499H4.18766ZM12.3265 3.32819V6.62509H15.4922L12.3265 3.32819ZM7.20703 9.83658C6.88487 9.83658 6.6237 10.0978 6.6237 10.4199C6.6237 10.7421 6.88487 11.0033 7.20703 11.0033H10.0261C10.3483 11.0033 10.6094 10.7421 10.6094 10.4199C10.6094 10.0978 10.3483 9.83658 10.0261 9.83658H7.20703ZM7.20785 12.9884C6.88568 12.9884 6.62451 13.2496 6.62451 13.5718C6.62451 13.8939 6.88568 14.1551 7.20785 14.1551H11.7439C12.0661 14.1551 12.3272 13.8939 12.3272 13.5718C12.3272 13.2496 12.0661 12.9884 11.7439 12.9884H7.20785Z" fill="#666666"/>
</svg>
